<svg width="241" height="32" viewBox="0 0 241 32" fill="none" xmlns="http://www.w3.org/2000/svg">
<path d="M18 3.26087C18 0.652173 15.5218 0 13.5652 0V0.391304C14.7391 0.391304 15.6522 0.782608 15.6522 1.69565C15.6522 2.21739 15.2609 3 14.087 3C13.1739 3 11.2174 2.47826 9.78262 1.95652C8.08697 1.30435 6.52175 0.782608 5.2174 0.782608C2.6087 0.782608 0.78261 2.73913 0.78261 4.95652C0.78261 6.91303 2.21739 7.56521 2.73913 7.82608L2.86957 7.56521C2.6087 7.30434 2.21739 7.04347 2.21739 6.26086C2.21739 5.73912 2.73913 4.82608 4.04348 4.82608C5.2174 4.82608 6.78262 5.34782 8.86958 5.99999C10.6957 6.52173 12.6522 6.91304 13.6957 7.04347V11.0869L11.7391 12.7826V12.913L13.6957 14.6087V20.2174C12.6522 20.8695 11.4783 21 10.4348 21C8.47827 21 6.78262 20.4782 5.34783 18.913L10.6957 16.3043V7.30434L4.17392 10.1739C4.69566 8.47825 6.13044 7.30434 7.56523 6.52173L7.43479 6.13043C3.52174 7.1739 0 10.8261 0 15.2609C0 20.4782 4.30435 24.3913 9.13045 24.3913C14.3478 24.3913 17.7392 20.2174 17.7392 15.913H17.4783C16.6957 17.6087 15.5218 19.1739 14.087 19.9565V14.6087L16.1739 12.913V12.7826L14.087 11.0869V7.04347C16.0435 7.04347 18 5.73912 18 3.26087ZM6.65218 17.6087L5.08696 18.3913C4.17392 17.2174 3.65218 15.6522 3.65218 13.4348C3.65218 12.5217 3.65218 11.4782 3.91305 10.6956L6.65218 9.52173V17.6087ZM20.4783 20.6087L18.7826 21.913L19.0435 22.1739L19.8261 21.5217L22.6957 24.1304L26.6087 21.5217L26.4783 21.2608L25.4348 21.913L24.1305 20.6087V11.7391L25.1739 10.9565L27.3913 12.7826V20.7391C27.3913 25.6956 26.3479 26.4782 24.1305 27.2608V27.6521C27.7826 27.7826 31.174 26.6087 31.174 20.2174V11.6087L32.3479 10.6956L32.087 10.4348L31.0435 11.2174L27.7826 8.47825L24.1305 11.2174V0.521739H23.8696L19.3044 3.65217V3.91304C19.8261 4.17391 20.6087 4.43478 20.6087 5.86956L20.4783 20.6087ZM44.3479 19.1739L41.087 21.6521L37.8261 19.0435V17.4782L43.9566 13.3043V13.1739L40.8261 8.47825L34.0435 12.1304V20.7391L32.7392 21.7826L33 22.0435L34.174 21.1304L38.6087 24.3913L44.4783 19.6956L44.3479 19.1739ZM37.8261 16.9565V10.5652L38.087 10.4348L40.9566 15L37.8261 16.9565ZM69.261 2.08695C69.261 1.69565 69.1305 1.30435 69.0001 0.913042H68.7392C68.3479 1.95652 67.8262 2.47826 66.5218 2.47826C65.3479 2.47826 64.5653 1.82608 64.0436 1.30435L60.2609 5.60869L60.5218 5.86956L61.8262 4.69565C62.6088 5.34782 63.261 5.86956 65.087 5.99999V16.8261L57.3914 3.65217C56.7392 2.60869 55.8262 1.17391 54.0001 1.17391C51.9131 1.17391 50.087 3 50.3479 5.86956H50.7392C50.8696 5.08695 51.2609 4.17391 52.174 4.17391C52.8262 4.17391 53.4783 4.82608 53.8696 5.47825V9.7826C51.5218 9.7826 49.9566 10.8261 49.9566 12.7826C49.9566 13.8261 50.4783 15.3913 52.0435 15.7826V15.5217C51.7827 15.2609 51.6522 15 51.6522 14.6087C51.6522 13.9565 52.174 13.4348 53.087 13.4348H53.7392V18.913C51.0001 18.913 48.7827 20.4782 48.7827 23.0869C48.7827 25.5652 50.8696 26.7391 53.2175 26.6087V26.3478C51.7827 26.2174 51.1305 25.5652 51.1305 24.6521C51.1305 23.4782 51.9131 22.9565 52.9566 22.9565C54.0001 22.9565 54.9131 23.6087 55.5653 24.3913L59.3479 20.2174L59.087 19.9565L58.174 21C56.7392 19.6956 55.9566 19.3043 54.2609 19.0435V5.99999L64.6957 24.2608H65.4783V5.99999C67.4349 5.86956 69.261 4.30434 69.261 2.08695ZM78.7827 19.1739L75.5218 21.6521L72.261 19.0435V17.4782L78.3914 13.3043V13.1739L75.261 8.47825L68.4783 12.1304V20.7391L67.174 21.7826L67.4349 22.0435L68.6088 21.1304L73.0436 24.3913L78.9131 19.6956L78.7827 19.1739ZM72.261 16.9565V10.5652L72.5218 10.4348L75.3914 15L72.261 16.9565ZM100.044 9.91303L99.1306 10.5652L96.6523 8.47825L93.7827 11.0869L94.9566 12.2609V22.0435L91.8262 20.0869V12L92.8697 11.3478L89.8697 8.47825L87.0001 11.0869L88.174 12.2609V21.6521L87.7827 21.913L85.0436 19.9565V12.1304C85.0436 10.3043 84.1305 9.7826 83.0871 9.13042C82.174 8.47825 81.6523 8.08695 81.6523 7.1739C81.6523 6.3913 82.4349 5.99999 82.8262 5.73912V5.47825C81.7827 5.47825 79.0436 6.52173 79.0436 8.99999C79.0436 10.3043 79.6958 10.8261 80.3479 11.4782C81.0001 12.1304 81.6523 12.6522 81.6523 13.8261V21.3913L80.2175 22.4348L80.4784 22.6956L81.7827 21.6521L84.7827 24.2608L88.0436 22.0435L91.6958 24.2608L98.6088 20.2174V11.4782L100.304 10.1739L100.044 9.91303ZM124.305 2.73913L123 3.91304L120.131 1.30435L115.826 4.43478V1.56522H115.435L115.565 22.6956C115.174 22.6956 114 22.4348 113.087 22.1739L112.826 4.56521C112.826 3.26087 111.913 1.43478 109.565 1.43478C107.218 1.43478 105.652 3.26087 105.652 5.08695H106.044C106.174 4.30434 106.565 3.65217 107.348 3.65217C108.131 3.65217 108.783 4.17391 108.783 5.86956V10.9565C106.435 11.0869 105 12.3913 105 14.0869C105 15.1304 105.522 16.6956 107.087 16.6956V16.4348C106.565 16.1739 106.435 15.7826 106.435 15.5217C106.435 14.7391 107.087 14.4782 108.131 14.4782H108.652V22.5652C106.696 23.2174 105.913 24.6521 105.913 26.2174C105.913 28.4347 107.609 30 110.218 30C112.044 30 113.609 29.7391 115.174 29.3478C116.478 29.0869 118.174 28.6956 118.957 28.6956C120 28.6956 120.391 29.2174 120.391 29.8695C120.391 30.7826 120 31.1739 119.478 31.3043V31.5652C121.565 31.1739 122.87 29.8695 122.87 27.913C122.87 25.9565 120.913 24.7826 118.826 24.7826C117.783 24.7826 115.565 25.1739 114 25.4348C112.174 25.8261 110.348 26.0869 109.826 26.0869C108.913 26.0869 107.87 25.6956 107.87 24.3913C107.87 23.3478 108.783 22.4348 111 22.4348C112.174 22.4348 113.609 22.5652 115.044 22.9565C116.609 23.3478 118.044 23.7391 119.348 23.7391C121.305 23.7391 123 23.0869 123 20.3478V4.30434L124.565 3L124.305 2.73913ZM118.957 10.6956C118.565 11.0869 118.044 11.4782 117.391 11.4782C116.739 11.4782 116.087 11.0869 115.826 10.6956V4.95652L117.131 4.04347L118.957 5.73912V10.6956ZM118.957 14.6087C118.696 14.3478 118.044 13.9565 117.391 13.9565C116.739 13.9565 116.087 14.3478 115.826 14.6087V11.2174C116.087 11.4782 116.739 11.8696 117.391 11.8696C118.044 11.8696 118.696 11.4782 118.957 11.2174V14.6087ZM118.957 20.7391C118.957 21.7826 118.305 22.8261 116.87 22.8261H115.826V15.1304C116.087 14.8695 116.739 14.4782 117.391 14.4782C118.044 14.4782 118.565 14.8695 118.957 15.1304V20.7391ZM136.826 11.4782L132.652 8.47825L126.261 12.1304V20.6087L124.957 21.6521L125.087 21.913L126.131 21.1304L130.305 24.2608L136.826 20.3478V11.4782ZM129.783 19.6956V10.3043L133.044 12.6522V21.913L129.783 19.6956ZM149.218 8.73912H148.957C148.565 8.99999 148.174 9.26086 147.783 9.26086C147.261 9.26086 146.609 8.99999 146.348 8.60869H146.087L143.87 11.0869L141.652 8.60869L137.739 11.2174L137.87 11.4782L138.913 10.8261L140.218 12.2609V20.4782L138.522 21.7826L138.783 22.0435L139.565 21.3913L142.696 24L146.739 21.2608L146.609 21L145.435 21.6521L143.87 20.3478V11.2174C144.522 11.8696 145.305 12.5217 146.218 12.5217C148.044 12.6522 149.087 10.8261 149.218 8.73912ZM164.87 21.2608L160.435 24.2608L154.435 15.1304L158.739 8.47825H159C159.522 8.99999 160.305 9.52173 161.218 9.52173C162.131 9.52173 162.783 8.99999 163.174 8.47825H163.435C163.305 11.0869 161.478 12.6522 160.174 12.6522C158.87 12.6522 158.218 12 157.435 11.6087L157.044 12.2609L163.565 21.913L164.87 21.1304V21.2608ZM150.522 20.6087L148.826 21.913L149.087 22.1739L149.87 21.5217L152.739 24.1304L156.652 21.5217L156.392 21.2608L155.348 21.913L154.044 20.6087V0.521739H153.913L149.218 3.65217V3.91304C149.739 4.17391 150.522 4.30434 150.522 5.86956V20.6087ZM186.522 3.26087C186.522 0.652173 184.044 0 182.087 0V0.391304C183.261 0.391304 184.174 0.782608 184.174 1.69565C184.174 2.21739 183.783 3 182.609 3C181.696 3 179.739 2.47826 178.305 1.95652C176.609 1.43478 175.044 0.913042 173.739 0.913042C171.131 0.913042 169.305 2.86956 169.305 5.08695C169.305 7.04347 170.739 7.69564 171.261 7.95651L171.392 7.69564C171 7.43477 170.609 7.1739 170.609 6.3913C170.609 5.86956 171.131 4.95652 172.435 4.95652C173.609 4.95652 175.174 5.47825 177.261 6.13043C179.087 6.65217 181.044 7.04347 182.087 7.1739V11.2174L180.131 12.913V13.0435L182.087 14.7391V20.3478C181.044 21 179.87 21.1304 178.826 21.1304C176.87 21.1304 175.174 20.6087 173.739 19.0435L179.087 16.4348V7.30434L172.565 10.1739C173.218 8.47825 174.652 7.30434 175.957 6.3913L175.826 6.13043C171.913 7.1739 168.392 10.6956 168.392 15.1304C168.392 20.3478 172.696 24.2608 177.522 24.2608C182.739 24.2608 186.131 20.0869 186.131 15.7826H185.87C185.087 17.4782 183.913 19.0435 182.479 19.8261V14.4782L184.565 12.7826V12.6522L182.609 10.9565V7.04347C184.565 7.04347 186.522 5.73912 186.522 3.26087ZM175.174 17.6087L173.609 18.3913C172.696 17.2174 172.174 15.6522 172.174 13.4348C172.174 12.5217 172.305 11.4782 172.565 10.6956L175.305 9.52173L175.174 17.6087ZM191.087 1.95652H190.957L188.348 4.17391V4.30434L190.565 6.7826H190.826L193.435 4.56521V4.43478L191.087 1.95652ZM195 21.2608L193.957 21.913L192.652 20.6087V11.6087L193.957 10.6956L193.696 10.4348L192.783 11.2174L190.435 8.47825L186.652 11.0869L186.913 11.4782L187.826 10.8261L189 12.2609V20.7391L187.305 22.0435L187.435 22.3043L188.348 21.6521L191.218 24.2608L195.131 21.6521L195 21.2608ZM216.783 21.1304L215.87 21.7826L214.435 20.4782V11.6087L215.739 10.5652L215.479 10.3043L214.435 11.2174L211.435 8.47825L207.522 11.2174L204.522 8.47825L200.87 11.2174L198.522 8.47825L194.739 11.0869L194.87 11.4782L195.783 10.8261L197.087 12.2609V20.7391L196.044 21.7826L199.044 24.2608L201.913 21.6521L200.739 20.4782V11.6087L201.913 10.8261L203.87 12.6522V20.4782L202.826 21.5217L205.826 24L208.696 21.3913L207.522 20.2174V11.6087L208.565 10.9565L210.652 12.7826V20.6087L209.739 21.5217L212.739 24.2608L216.783 21.5217V21.1304ZM228.131 19.1739L224.87 21.6521L221.609 19.0435V17.4782L227.739 13.3043V13.1739L224.609 8.47825L217.826 12.1304V21L222.392 24.2608L228.261 19.5652L228.131 19.1739ZM221.609 16.9565V10.5652L221.87 10.4348L224.739 15L221.609 16.9565ZM240 15.7826L237.522 13.8261C239.218 12.3913 239.87 10.4348 239.87 9.13042V8.34782H239.609C239.348 8.99999 238.826 9.65216 237.783 9.65216C236.739 9.65216 236.087 9.13042 235.435 8.34782L229.566 11.6087V16.3043L231.783 18C229.566 19.9565 229.174 21.2608 229.174 22.3043C229.174 23.6087 229.826 24.5217 230.87 24.913L231 24.6521C230.739 24.3913 230.479 24.2608 230.479 23.6087C230.479 23.2174 231 22.5652 232.044 22.5652C233.348 22.5652 234.131 23.4782 234.522 23.8695L240.131 20.4782V15.7826H240ZM238.566 11.8696C237.652 13.4348 235.696 15 234.522 15.7826L233.087 14.6087V10.0435C233.609 11.3478 235.044 12.3913 236.479 12.3913C237.392 12.3913 237.913 12.2609 238.566 11.8696ZM236.348 22.3043C235.696 20.8695 234.131 19.8261 232.566 19.8261C232.174 19.8261 231.131 19.8261 230.087 20.4782C230.739 19.4348 232.435 17.6087 234.652 16.3043L236.218 17.6087L236.348 22.3043Z" fill="#8A8C91"/>
</svg>
