<svg width="187" height="26" viewBox="0 0 187 26" fill="none" xmlns="http://www.w3.org/2000/svg">
<path d="M6.61169 25.5232C6.61169 25.0916 6.62585 24.6653 6.65549 24.2415C7.31497 14.4124 15.5149 6.61694 25.5 6.61694C35.5225 6.61694 43.7494 14.4729 44.3522 24.3562C44.3767 24.7427 44.3896 25.1316 44.3896 25.5232H51C51 25.1716 50.9923 24.8237 50.9781 24.4761C50.4307 10.865 39.2334 0 25.5 0C11.8606 0 0.721313 10.7192 0.0334778 24.2004C0.0115967 24.6382 0 25.0789 0 25.5232H6.61169Z" fill="#8A8C91"/>
<path d="M15.1117 25.5232C15.1115 25.1206 15.1347 24.7185 15.1812 24.3188C15.7789 19.1511 20.179 15.1245 25.5 15.1245C30.8494 15.1245 35.2675 19.1924 35.8278 24.3987C35.869 24.7695 35.8896 25.1433 35.8896 25.5232H42.4987C42.4987 25.1599 42.4884 24.7993 42.4665 24.4412C41.9101 15.5483 34.5268 8.50781 25.5 8.50781C16.4873 8.50781 9.11441 15.5278 8.53735 24.4026C8.51288 24.7722 8.5 25.1458 8.5 25.5232H15.1117Z" fill="#8A8C91"/>
<path d="M28.7544 17.6636C27.7227 17.2358 26.6169 17.0156 25.5 17.0154C24.3832 17.0159 23.2774 17.2361 22.2458 17.6638C21.2142 18.0916 20.2769 18.7185 19.4876 19.5085C18.6983 20.2986 18.0723 21.2363 17.6455 22.2683C17.2187 23.3003 16.9993 24.4065 17 25.5232H34C34.0009 24.4062 33.7816 23.3003 33.3549 22.2683C32.9281 21.2361 32.3021 20.2983 31.5128 19.5081C30.7234 18.718 29.7861 18.0913 28.7544 17.6636Z" fill="#8A8C91"/>
<path d="M75.9736 5.91382V24.9766H69.4009V5.91382H61V0.467041H84.4909V5.91382H75.9736Z" fill="#8A8C91"/>
<path fill-rule="evenodd" clip-rule="evenodd" d="M98.7067 25.4436C105.824 25.4436 111.424 20.2695 111.424 12.7219C111.424 5.17407 105.824 0 98.7067 0C91.5897 0 85.9894 5.17407 85.9894 12.7219C85.9894 20.2695 91.5897 25.4436 98.7067 25.4436ZM98.7067 5.83569C102.324 5.83569 104.618 8.55908 104.618 12.7219C104.618 16.8845 102.323 19.6079 98.7067 19.6079C95.09 19.6079 92.7955 16.8845 92.7955 12.7219C92.7955 8.55908 95.09 5.83569 98.7067 5.83569Z" fill="#8A8C91"/>
<path fill-rule="evenodd" clip-rule="evenodd" d="M114.984 0.467041V24.9766H124.667C132.796 24.9766 137.813 20.386 137.813 12.7219C137.813 5.05786 132.797 0.467041 124.668 0.467041H114.984ZM124.201 19.7644H121.596V5.68042H124.201C128.479 5.68042 131.007 8.24829 131.007 12.6829C131.007 17.1963 128.479 19.7644 124.201 19.7644Z" fill="#8A8C91"/>
<path fill-rule="evenodd" clip-rule="evenodd" d="M155.491 0.467041H148.101L138.34 24.9766H144.99L146.818 20.2305H156.386L158.213 24.9766H165.253L155.491 0.467041ZM148.724 15.2898L151.524 8.05298H151.68L154.479 15.2898H148.724Z" fill="#8A8C91"/>
<path d="M179.883 0.467041L174.633 9.29785L169.109 0.467041H161.759L171.171 15.6787V24.9766H177.589V15.6787L187 0.467041H179.883Z" fill="#8A8C91"/>
</svg>
