<svg width="135" height="35" viewBox="0 0 135 35" fill="none" xmlns="http://www.w3.org/2000/svg">
<path fill-rule="evenodd" clip-rule="evenodd" d="M73.8385 20.6545V19.9026H84.2543V20.1237V20.4554V20.6766H81.7776V34.2325H81.313L81.2686 34.0556C80.9815 32.7066 79.5881 32.2422 78.8807 32.2422H78.7697H78.6153C77.4433 32.2848 76.3948 32.779 75.3111 33.2897L75.1876 33.3479C75.0771 33.3922 74.9717 33.4364 74.8668 33.4806C74.7618 33.5248 74.6569 33.569 74.5464 33.6133C73.3961 34.1661 72.158 34.6527 70.654 34.6527C62.6044 34.6527 56.7222 27.7088 56.7222 17.9124C56.7222 5.90445 64.5947 0.0884561 70.3225 0.0884561C71.5828 0.0884561 72.4012 0.33171 73.5066 0.685533L73.9712 0.818217C74.0766 0.853432 74.1871 0.890886 74.3013 0.929869L74.3027 0.930322C74.5473 1.01362 74.8131 1.1039 75.0988 1.19416L75.5413 1.30473C75.8511 1.37107 76.2491 1.43741 76.7133 1.45952C77.6643 1.48164 78.7697 1.23838 79.2344 0.132684L79.3005 0H79.6764H79.7873V12.1627H79.6764H79.2788L79.2344 11.9858C77.1997 3.89207 74.7008 0.884561 70.3447 0.862448H70.3003C66.7177 0.862448 65.5235 3.1623 64.8823 4.40069C63.1795 7.69566 62.8259 15.2144 62.8259 17.5143C62.8259 23.9495 63.4005 26.7137 64.4842 29.5885C65.5901 32.5297 67.5139 33.945 70.4108 33.9008C73.0868 33.8565 76.5145 32.7066 76.5145 27.554V20.6545H73.8385ZM134.276 22.0698V21.8708H134.917V34.0335H111.012V33.2374H113.931V1.74702H110.68H107.938V25.4975C108.004 29.6549 105.24 34.6748 99.2028 34.6748C90.2027 34.6748 87.1286 29.9866 87.1286 23.9273V1.74702H84.0329V1.30474V0.973028H95.6424V1.30474V1.74702H92.6572V26.6916C92.6572 26.957 92.856 33.5469 99.4021 33.7902C101.193 33.8566 103.161 33.1489 104.554 31.822C105.705 30.7385 107.031 28.6598 107.098 25.2763V1.74702H104.533V1.30474V0.973028H110.68H111.344H111.565H133.568V12.1185H133.037L132.993 11.9416C130.947 1.5833 126.21 1.68072 121.356 1.78054C121.173 1.78429 120.991 1.78804 120.808 1.79124C120.454 1.81336 119.88 1.81336 119.525 1.81336V16.7624H119.769H119.796C122.467 16.7625 125.72 16.7626 126.425 10.283L126.447 10.084H126.978V24.3475H126.447L126.425 24.1485C125.91 17.4967 122.876 17.5282 120.191 17.5562L120.14 17.5567C120.075 17.5574 120.01 17.558 119.946 17.5585H119.504V33.2595H119.769C119.865 33.2595 119.979 33.2608 120.109 33.2623C121.979 33.2837 127.162 33.3432 130.76 30.0972C132.949 28.129 134.121 25.4311 134.276 22.0698ZM39.6508 0.176929C32.8618 0.176929 25.4094 6.96592 25.4094 17.3374C25.4094 27.7089 33.1051 34.5863 39.6508 34.5863C46.1965 34.5863 53.8923 27.7089 53.8923 17.3374C53.8701 6.96592 46.44 0.176929 39.6508 0.176929ZM47.5676 16.0548V16.2759V16.4307V16.5634V16.7624V16.8288V17.0278V17.072V17.2932V17.4701C47.5676 19.394 47.3905 26.8022 45.4447 30.4952C44.3389 32.6403 42.1939 33.7681 39.6066 33.7681C37.0192 33.7681 34.8521 32.6403 33.7684 30.4952C31.8225 26.8022 31.6676 19.394 31.6676 17.4701V17.2932V17.072V17.0278V16.8288V16.7624V16.5634V16.4307V16.2759V16.0548V15.9663C31.734 13.0031 32.1099 7.45243 33.7684 4.20168C35.0953 1.50377 37.7932 0.928806 39.6066 0.928806C41.442 0.928806 44.1178 1.50377 45.4447 4.20168C47.103 7.45243 47.4571 13.0031 47.5454 15.9663C47.5676 15.9885 47.5676 16.0327 47.5676 16.0548ZM21.9592 0.973028H28.0405H28.2617V1.7249H25.5637H25.2763L15.5682 34.2104H15.3913L3.18441 1.7249H2.87482H0V1.28262V0.973028H10.9907V1.28262V1.7249H8.66866H8.51388L17.2268 25.8734L24.4359 1.7249H21.7381V0.973028H21.9592Z" fill="#8A8C91"/>
</svg>
